<?xml version="1.0" encoding="utf-8"?>
<!-- Generator: Adobe Illustrator 18.1.1, SVG Export Plug-In . SVG Version: 6.00 Build 0)  -->
<svg version="1.1" id="Layer_1" xmlns="http://www.w3.org/2000/svg" xmlns:xlink="http://www.w3.org/1999/xlink" x="0px" y="0px"
	 viewBox="0 0 58 15" enable-background="new 0 0 58 15" xml:space="preserve">
<g>
	<path fill="#231F20" d="M20.2,4.1L20.2,4.1L20.2,4.1L20.2,4.1z M31.5,4.4l-5.3,10.4h-1.8l1.8-3.5l-3-5.5c0.1,0.3,0.2,0.7,0.2,1.1
		v3.4c0,0.4,0,1,0,1h-1.5c0,0,0-0.5,0-1c0,0-0.7,1.3-3,1.3c-1.7,0-3-0.8-3-2.3c0-0.1,0-0.1,0-0.3c-0.4,1.6-1.8,2.5-3.5,2.5
		c-2.1,0-2.8-1.2-2.8-1.2c0,0.4,0,1,0,1H8.1c0,0,0-0.7,0-1.2V8.3H2c0,1.3,1,2.3,2.4,2.3c1.7,0,2-1.2,2-1.2H8c0,0-0.2,2.2-3.6,2.2
		c-2.8,0-4.1-1.4-4.1-3.6c0-2.8,1.8-3.7,4-3.7c2.9,0,3.8,1.9,3.8,3.2V0.3h1.6v5.1c0,0,0.7-1.2,2.8-1.2c2.3,0,3.7,1.6,3.7,3.7
		c0,0.3,0,0.5,0,0.7c0.4-1,1.7-1.6,3.8-1.6h1.9V6.7c0-1-0.8-1.4-1.9-1.4c-1.7,0-1.8,1.1-1.8,1.1h-1.7c0-0.3,0.2-2.1,3.5-2.1l0,0
		c1.1,0,2.4,0.2,3,1.1l-0.6-1h1.8l2.7,5.5l2.7-5.5H31.5z M6.6,7.2c0-1.2-0.9-2-2.2-2C3.2,5.2,2,5.9,2,7.2H6.6z M14.7,7.8
		c0-1.5-1-2.6-2.4-2.6c-1.7,0-2.4,1.3-2.4,2.6c0,1.4,0.8,2.6,2.4,2.6C13.6,10.4,14.7,9.4,14.7,7.8z M22,8c-2.5,0-4.2,0-4.2,1.3
		c0,0.7,0.5,1.3,1.7,1.3c2.1,0,2.5-1.5,2.5-2.1V8z"/>
	<g>
		<path fill="#23804F" d="M32.8,4.3h1.4v1c0.5-0.8,1.4-1.2,2.4-1.2c1.9,0,3.4,1.5,3.4,3.7s-1.5,3.7-3.4,3.7c-1,0-1.9-0.4-2.4-1.2
			v4.5h-1.4V4.3z M38.5,7.8c0-1.5-0.9-2.6-2.2-2.6c-1.3,0-2.2,1-2.2,2.6c0,1.5,0.9,2.6,2.2,2.6C37.6,10.3,38.5,9.3,38.5,7.8z"/>
		<path fill="#23804F" d="M41,1.5h1.4v9.7H41V1.5z"/>
		<path fill="#23804F" d="M44.9,10.8C44.3,10.3,44,9.6,44,8.4V4.3h1.4v4.1c0,0.7,0.1,1.2,0.4,1.5c0.3,0.3,0.7,0.5,1.3,0.5
			s1-0.1,1.3-0.5c0.3-0.3,0.4-0.7,0.4-1.5V4.3h1.4v4.1c0,1.2-0.3,1.9-0.8,2.4c-0.5,0.4-1.3,0.7-2.2,0.7
			C46.1,11.5,45.3,11.2,44.9,10.8z"/>
		<path fill="#23804F" d="M51.3,9.1h1.3c0.1,0.9,0.8,1.4,1.8,1.4c0.7,0,1.5-0.3,1.5-1c0-0.6-0.5-0.9-1.4-1.1l-1-0.2
			c-1.3-0.3-2.1-0.9-2.1-2.1c0-1.2,1.2-2,2.7-2c1.5,0,2.7,0.7,2.9,2.2h-1.3c-0.2-0.8-0.8-1.1-1.6-1.1c-0.7,0-1.4,0.3-1.4,0.9
			c0,0.5,0.4,0.8,1.2,1l0.9,0.2c1.3,0.3,2.4,0.7,2.4,2c0,1.4-1.3,2.2-2.9,2.2C52.8,11.5,51.5,10.8,51.3,9.1z"/>
	</g>
	<path fill="#231F20" d="M20.2,4.1L20.2,4.1L20.2,4.1L20.2,4.1z M31.5,4.4l-5.3,10.4h-1.8l1.8-3.5l-3-5.5c0.1,0.3,0.2,0.7,0.2,1.1
		v3.4c0,0.4,0,1,0,1h-1.5c0,0,0-0.5,0-1c0,0-0.7,1.3-3,1.3c-1.7,0-3-0.8-3-2.3c0-0.1,0-0.1,0-0.3c-0.4,1.6-1.8,2.5-3.5,2.5
		c-2.1,0-2.8-1.2-2.8-1.2c0,0.4,0,1,0,1H8.1c0,0,0-0.7,0-1.2V8.3H2c0,1.3,1,2.3,2.4,2.3c1.7,0,2-1.2,2-1.2H8c0,0-0.2,2.2-3.6,2.2
		c-2.8,0-4.1-1.4-4.1-3.6c0-2.8,1.8-3.7,4-3.7c2.9,0,3.8,1.9,3.8,3.2V0.3h1.6v5.1c0,0,0.7-1.2,2.8-1.2c2.3,0,3.7,1.6,3.7,3.7
		c0,0.3,0,0.5,0,0.7c0.4-1,1.7-1.6,3.8-1.6h1.9V6.7c0-1-0.8-1.4-1.9-1.4c-1.7,0-1.8,1.1-1.8,1.1h-1.7c0-0.3,0.2-2.1,3.5-2.1l0,0
		c1.1,0,2.4,0.2,3,1.1l-0.6-1h1.8l2.7,5.5l2.7-5.5H31.5L31.5,4.4z M6.6,7.2c0-1.2-0.9-2-2.2-2C3.2,5.2,2,5.9,2,7.2H6.6z M14.7,7.8
		c0-1.5-1-2.6-2.4-2.6c-1.7,0-2.4,1.3-2.4,2.6c0,1.4,0.8,2.6,2.4,2.6C13.6,10.4,14.7,9.4,14.7,7.8z M22,8c-2.5,0-4.2,0-4.2,1.3
		c0,0.7,0.5,1.3,1.7,1.3c2.1,0,2.5-1.5,2.5-2.1V8z"/>
</g>
</svg>
